<svg version="1" xmlns="http://www.w3.org/2000/svg" width="341.333" height="341.333" viewBox="0 0 256.000000 256.000000"><path d="M117 26.5V43h22V10h-22v16.5zM44.7 44.8L37 52.5 48.5 64 60 75.5l7.7-7.8 7.8-7.7L64 48.5 52.5 37l-7.8 7.8zM192 48.5L180.5 60l7.8 7.7 7.7 7.8L207.5 64 219 52.5l-7.8-7.8-7.7-7.7L192 48.5zM110 66.3C88.1 73 71.8 89.6 66 111.4c-2.8 10.3-2.4 26.6.8 36.6 4 12.3 14.1 25.7 25 33.2l4.2 2.9v11.2c0 18.3.6 18.7 32 18.7s32-.4 32-18.7v-11.2l4.3-2.9c11.1-7.7 21-21.1 25-33.7 3.1-10 3.1-29 0-39-5.9-18.9-22.4-35.5-41.3-41.7-10.1-3.3-28.1-3.5-38-.5zM10 128v11h33v-22H10v11zM213 128v11h33v-22h-33v11zM106.2 231.5c.3 6.9.6 7.8 3.6 10.8l3.2 3.2h30l3.2-3.2c3-3 3.3-3.9 3.6-10.8l.4-7.5h-44.4l.4 7.5z"/></svg>